<?xml version="1.0" encoding="UTF-8"?>
<svg width="63px" height="60px" viewBox="0 0 63 60" version="1.1" xmlns="http://www.w3.org/2000/svg" xmlns:xlink="http://www.w3.org/1999/xlink">
    <!-- Generator: sketchtool 63.1 (101010) - https://sketch.com -->
    <title>BC2E4808-2F13-48CE-A9D0-2FBD67112D20</title>
    <desc>Created with sketchtool.</desc>
    <g id="[UI]-PROVEEDOR-/-REGISTRAR-SUCURSALES" stroke="none" stroke-width="1" fill="none" fill-rule="evenodd">
        <g id="09A_[Sucursal]Detalle-de-la-sucursal" transform="translate(-260.000000, -1163.000000)">
            <g id="Group-3" transform="translate(235.000000, 1143.000000)">
                <g id="Group" transform="translate(24.000000, 19.000000)">
                    <g id="Group-4" fill="#E6EBED">
                        <path d="M48.0769231,8.84615385 C49.7762608,8.84615385 51.1538462,10.2237392 51.1538462,11.9230769 L51.1538462,48.0769231 C51.1538462,49.7762608 49.7762608,51.1538462 48.0769231,51.1538462 L11.9230769,51.1538462 C10.2237392,51.1538462 8.84615385,49.7762608 8.84615385,48.0769231 L8.84615385,11.9230769 C8.84615385,10.2237392 10.2237392,8.84615385 11.9230769,8.84615385" id="Path" transform="translate(30.000000, 30.000000) rotate(-315.000000) translate(-30.000000, -30.000000) "></path>
                    </g>
                    <g id="Ico/carga-check" transform="translate(12.500000, 10.500000)">
                        <g id="ic_carga-chek-">
                            <path d="M9.23913043,-8.77365813e-14 L9.23913043,17.5271739 C9.23913043,19.2934783 10.326087,20.7880435 11.9565217,21.4673913 C12.5,21.6032609 12.9076087,21.7391304 13.451087,21.7391304 C14.673913,21.7391304 15.7608696,21.1956522 16.576087,20.3804348 L16.576087,20.3804348 L19.701087,16.9836957 L22.6902174,20.2445652 C23.5054348,21.0597826 24.5923913,21.6032609 25.8152174,21.6032609 C26.2228261,21.6032609 26.7663043,21.4673913 27.173913,21.3315217 L27.173913,21.3315217 L27.3097826,21.3315217 C28.8043478,20.7880435 29.8913043,19.2934783 29.8913043,17.5271739 L29.8913043,17.5271739 L29.8913043,-8.77365813e-14 L37.7717391,-8.77365813e-14 C38.451087,-8.77365813e-14 39.1304348,0.543478261 39.1304348,1.35869565 L39.1304348,1.35869565 L39.1301723,22.0907988 C38.9274449,22.0828274 38.7237032,22.0788043 38.5190217,22.0788043 C30.0771692,22.0788043 23.2336957,28.9222779 23.2336957,37.3641304 C23.2336957,37.9616382 23.2679794,38.5511385 23.334687,39.1307717 L1.49456522,39.1304348 C0.679347826,39.1304348 0.135869565,38.451087 2.21679036e-12,37.6358696 L2.21679036e-12,37.6358696 L2.21679036e-12,1.35869565 C2.21679036e-12,0.679347826 0.543478261,-8.77365813e-14 1.35869565,-8.77365813e-14 L1.35869565,-8.77365813e-14 L9.23913043,-8.77365813e-14 Z" id="Combined-Shape" fill="#0D4D64"></path>
                            <path d="M38.7681159,26.0869565 C45.3715206,26.0869565 50.7246377,31.4400736 50.7246377,38.0434783 C50.7246377,44.6468829 45.3715206,50 38.7681159,50 C32.1647113,50 26.8115942,44.6468829 26.8115942,38.0434783 C26.8115942,31.4400736 32.1647113,26.0869565 38.7681159,26.0869565 Z M44.3289768,32.9198342 C44.0080371,32.9303975 43.7033345,33.0815993 43.4793768,33.3414292 C41.5238177,35.5547043 39.7383827,37.7249268 37.8604308,39.8906809 L35.6527578,37.8917505 C35.3078385,37.5800629 34.8418755,37.4998813 34.4304122,37.6814127 C34.0189488,37.8629442 33.7245045,38.278606 33.6580058,38.7718049 C33.5915072,39.2650039 33.7630583,39.7608014 34.1080304,40.0724145 L37.1974852,42.8636644 C37.6908818,43.3075203 38.4010793,43.2605196 38.8451945,42.7546196 C41.0675485,40.2394243 43.0585333,37.7690285 45.2300678,35.3112841 C45.593009,34.9090924 45.7007924,34.2969017 45.5016931,33.7685019 C45.3025937,33.2401022 44.8372487,32.9033427 44.3289768,32.9198342 Z" id="Combined-Shape" fill="#EFA51E"></path>
                            <path d="M12.4902784,18.7898876 C13.0689689,18.9250666 13.6476594,18.7898876 14.0816773,18.3843504 L19.4345646,12.8420095 L24.7874519,18.3843504 C25.0767972,18.6547085 25.5108151,18.7898876 25.944833,18.7898876 C26.0895056,18.7898876 26.2341782,18.7898876 26.5235235,18.6547085 C27.102214,18.3843504 27.5362319,17.9788133 27.5362319,17.302918 L27.5362319,0 L11.6222426,0 L11.6222426,17.4380971 C11.47757,17.9788133 11.9115879,18.5195295 12.4902784,18.7898876 Z" id="Path" fill="#EFA51E"></path>
                        </g>
                    </g>
                </g>
            </g>
        </g>
    </g>
</svg>